<svg xmlns="http://www.w3.org/2000/svg" width="264" height="172" viewBox="0 0 264 172" role="img" aria-label="Coffee cup icon with latte art">
  <path d="M 31.50 50.00 L 31.00 57.00 L 31.75 71.00 L 33.75 81.00 L 34.50 82.00 L 34.75 85.75 L 38.75 97.00 L 45.75 110.75 L 51.75 119.75 L 56.75 125.75 L 68.00 137.00 L 74.25 141.25 L 79.00 146.00 L 82.00 148.00 L 92.75 151.00 L 96.25 151.00 L 99.00 152.00 L 106.50 153.00 L 123.50 153.00 L 142.75 150.00 L 150.75 147.00 L 153.50 144.00 L 163.25 137.00 L 173.50 127.00 L 178.25 126.00 L 182.25 124.25 L 185.25 124.00 L 191.75 121.25 L 194.50 121.00 L 201.50 118.00 L 206.00 117.00 L 211.25 114.25 L 213.25 114.00 L 220.00 110.00 L 225.00 106.00 L 232.00 98.00 L 235.00 92.50 L 237.00 86.25 L 237.00 77.00 L 236.00 73.75 L 232.00 67.25 L 226.75 62.75 L 222.25 60.75 L 216.75 59.50 L 207.25 59.75 L 200.00 61.75 L 199.50 61.25 L 200.00 52.25 L 199.00 49.25 L 197.00 46.00 L 192.50 41.75 L 188.00 38.75 L 184.75 37.75 L 181.50 35.75 L 169.00 31.75 L 164.75 31.50 L 154.25 28.75 L 137.25 27.50 L 134.75 26.75 L 120.00 26.25 L 95.50 26.75 L 93.00 27.50 L 76.50 28.75 L 66.25 30.75 L 65.25 31.50 L 61.00 31.75 L 48.25 35.75 L 42.00 38.75 L 36.50 42.75 L 32.75 47.25 Z
M 37.25 49.25 L 41.00 45.25 L 47.50 41.00 L 49.00 41.00 L 55.75 38.00 L 62.00 37.00 L 71.50 34.25 L 78.25 34.00 L 87.00 32.25 L 99.75 31.00 L 131.50 31.00 L 151.00 33.25 L 153.50 34.25 L 159.25 34.25 L 160.25 35.00 L 163.50 35.25 L 175.00 38.25 L 178.50 40.25 L 184.50 42.25 L 190.50 46.25 L 194.50 51.50 L 194.50 54.25 L 190.50 59.75 L 184.00 64.50 L 180.50 65.50 L 176.50 67.75 L 171.00 68.75 L 163.00 71.50 L 157.50 71.75 L 139.25 74.75 L 108.25 75.50 L 91.75 74.75 L 87.50 73.75 L 81.75 73.50 L 80.00 72.75 L 68.75 71.50 L 60.50 68.75 L 54.00 67.50 L 42.00 61.50 L 37.25 56.50 Z
M 41.50 50.75 L 41.75 56.25 L 45.75 60.25 L 52.00 64.00 L 54.50 64.25 L 55.00 65.00 L 60.75 67.00 L 64.25 67.25 L 65.25 68.00 L 68.50 68.25 L 74.25 70.00 L 103.75 73.00 L 124.75 73.00 L 140.50 72.00 L 142.25 71.25 L 150.75 71.00 L 152.50 70.25 L 157.25 70.00 L 162.50 68.25 L 170.50 67.00 L 176.50 64.25 L 178.75 64.00 L 185.50 60.00 L 189.25 55.00 L 189.00 51.25 L 187.25 48.75 L 183.75 45.75 L 176.25 41.75 L 174.00 41.50 L 168.00 38.75 L 164.50 38.50 L 155.25 35.75 L 148.50 34.75 L 141.50 34.75 L 136.25 33.75 L 129.50 33.50 L 121.25 33.75 L 120.25 34.50 L 117.50 34.75 L 115.25 36.50 L 109.25 33.75 L 100.75 33.50 L 82.50 34.75 L 71.00 36.75 L 70.00 37.50 L 65.75 37.50 L 66.00 38.25 L 62.75 38.50 L 56.00 41.50 L 51.25 42.75 L 44.75 46.75 Z
M 62.00 51.50 L 64.50 47.25 L 69.50 44.25 L 72.00 44.00 L 79.25 41.25 L 84.00 40.75 L 86.00 41.25 L 88.25 40.50 L 87.75 45.00 L 88.75 47.00 L 92.75 50.25 L 101.75 53.00 L 110.50 54.25 L 115.00 56.00 L 114.00 52.75 L 113.00 51.75 L 104.50 48.75 L 101.00 48.50 L 97.00 46.50 L 95.00 44.25 L 95.25 42.25 L 97.25 40.25 L 100.00 39.25 L 104.25 39.25 L 110.50 41.25 L 113.50 44.50 L 113.75 45.75 L 115.75 46.50 L 120.25 41.00 L 125.25 39.25 L 130.50 39.25 L 134.75 41.50 L 134.50 45.00 L 131.25 47.50 L 122.00 49.75 L 117.25 51.75 L 115.75 53.25 L 115.75 55.50 L 119.25 54.25 L 131.50 52.00 L 132.25 51.25 L 137.25 50.00 L 142.00 45.50 L 142.25 42.50 L 141.25 41.00 L 141.75 40.50 L 148.00 41.00 L 157.75 44.00 L 160.50 44.25 L 165.50 47.25 L 167.75 49.50 L 168.50 53.75 L 167.75 55.25 L 164.00 58.50 L 162.25 58.75 L 157.00 61.50 L 153.00 61.75 L 152.00 62.50 L 144.25 63.75 L 143.00 64.50 L 122.25 65.75 L 114.75 67.75 L 112.25 66.50 L 86.75 64.50 L 85.75 63.75 L 82.50 63.50 L 77.00 61.75 L 73.25 61.50 L 65.25 57.75 L 62.25 54.50 Z
M 220.75 76.50 L 222.50 79.50 L 222.50 85.50 L 220.50 90.50 L 217.25 94.50 L 206.25 101.50 L 204.00 101.75 L 198.50 104.50 L 195.75 104.75 L 187.75 107.50 L 186.75 107.25 L 193.00 94.75 L 194.25 89.25 L 196.00 85.50 L 197.50 78.00 L 205.00 75.25 L 211.00 74.00 L 217.00 74.25 Z
M 71.00 49.00 L 71.50 52.00 L 72.75 53.75 L 77.50 57.00 L 90.75 61.00 L 109.75 63.25 L 115.00 65.25 L 116.75 65.00 L 117.50 64.00 L 119.75 64.25 L 120.50 63.25 L 144.25 60.00 L 154.00 56.00 L 157.25 53.25 L 159.00 50.50 L 159.00 48.25 L 158.00 46.50 L 156.25 45.00 L 154.75 44.75 L 155.50 49.00 L 154.50 51.00 L 149.25 54.75 L 136.00 58.50 L 127.75 58.50 L 128.00 59.25 L 119.00 60.75 L 115.00 63.00 L 111.25 60.75 L 107.75 59.75 L 102.75 59.50 L 101.50 58.50 L 93.75 58.50 L 80.00 54.50 L 75.75 51.50 L 74.00 49.25 L 74.25 46.75 L 76.50 44.50 L 76.50 43.50 L 73.50 44.75 L 71.75 46.50 Z
M 79.00 46.50 L 79.50 49.00 L 80.50 50.25 L 85.00 53.25 L 85.50 54.25 L 88.50 54.25 L 89.00 55.00 L 97.00 57.00 L 103.75 57.50 L 103.75 58.25 L 108.75 58.25 L 114.25 60.50 L 116.50 60.50 L 121.25 58.25 L 125.75 58.00 L 127.00 57.25 L 133.75 57.50 L 134.75 57.25 L 134.00 57.00 L 134.25 56.50 L 137.25 56.25 L 141.75 54.25 L 144.75 54.25 L 150.25 49.50 L 151.00 47.50 L 150.00 44.25 L 148.00 42.50 L 145.75 42.25 L 147.50 45.50 L 146.50 47.25 L 143.50 49.50 L 139.25 51.50 L 119.00 55.75 L 115.00 59.25 L 112.75 56.75 L 110.25 55.50 L 102.75 54.50 L 95.00 52.50 L 93.75 51.50 L 90.75 51.50 L 85.00 48.50 L 83.25 46.50 L 84.25 43.25 L 85.25 42.75 L 84.75 41.75 L 82.00 42.75 Z
M 87.00 46.75 L 87.25 48.25 L 90.50 49.50 Z
M 37.00 52.00 L 37.00 53.75 L 36.50 53.00 Z
M 149.00 52.50 L 147.00 53.50 L 148.75 53.25 Z" fill="#000000" fill-rule="evenodd"/>
</svg>
